<svg width="64" height="62" viewBox="0 0 64 62" fill="none" xmlns="http://www.w3.org/2000/svg">
<g clip-path="url(#clip0_15_436)">
<path d="M63.1564 33.4086C62.5952 27.7638 60.0733 22.442 56.0551 18.4237C52.6211 14.9899 48.4181 12.7832 43.9955 11.8021V8.70017C45.8018 8.25079 47.1445 6.61573 47.1445 4.6723C47.1445 2.38349 45.2825 0.521484 42.9937 0.521484H34.2037C31.9149 0.521484 30.0529 2.38349 30.0529 4.6723C30.0529 6.61561 31.3956 8.25066 33.2018 8.70017V11.8107C28.7928 12.796 24.6036 14.9996 21.1794 18.4238C20.4301 19.1732 19.7391 19.9593 19.1066 20.7762C19.076 20.7739 19.0453 20.7716 19.0141 20.7716H10.3143C9.64018 20.7716 9.0935 21.3182 9.0935 21.9924C9.0935 22.6667 9.64018 23.2132 10.3143 23.2132H17.4454C16.5503 24.7118 15.8286 26.2856 15.2792 27.9056H1.99231C1.31817 27.9056 0.771484 28.4522 0.771484 29.1264C0.771484 29.8007 1.31817 30.3473 1.99231 30.3473H14.5893C14.2375 31.8917 14.0355 33.4636 13.9834 35.0398H8.58478C7.91064 35.0398 7.36395 35.5863 7.36395 36.2606C7.36395 36.9349 7.91064 37.4814 8.58478 37.4814H14.0223C14.1254 39.0617 14.3794 40.6336 14.7846 42.1739H6.87562C6.20148 42.1739 5.65479 42.7205 5.65479 43.3947C5.65479 44.069 6.20148 44.6156 6.87562 44.6156H15.5638C16.7614 47.7837 18.633 50.7532 21.1794 53.2996C25.2016 57.3217 30.5288 59.8442 36.1795 60.4025C36.986 60.4821 37.7931 60.5215 38.5991 60.5215C43.363 60.5215 48.0663 59.1428 52.0572 56.5439C52.6222 56.176 52.782 55.4196 52.4141 54.8546C52.0461 54.2896 51.2898 54.1298 50.7248 54.4978C41.9889 60.1865 30.2894 58.9565 22.9059 51.5731C14.2427 42.9098 14.2427 28.8138 22.9059 20.1504C31.5691 11.4873 45.6651 11.4873 54.3284 20.1504C61.7021 27.5242 62.9388 39.2138 57.2689 47.9454C56.9017 48.5109 57.0625 49.267 57.6279 49.6341C58.1936 50.0014 58.9495 49.8406 59.3166 49.2751C62.346 44.6097 63.7097 38.975 63.1564 33.4086ZM32.4946 4.67242C32.4946 3.72994 33.2612 2.96326 34.2037 2.96326H42.9937C43.9362 2.96326 44.7028 3.72994 44.7028 4.67242C44.7028 5.6149 43.9362 6.38158 42.9937 6.38158H42.7747H34.4226H34.2037C33.2612 6.38158 32.4946 5.61478 32.4946 4.67242ZM35.6434 11.391V8.82323H41.5538V11.3866C39.5912 11.1532 37.6057 11.1546 35.6434 11.391Z" fill="#90C943"/>
<path d="M55.1915 51.2148C54.8692 51.2148 54.5555 51.3455 54.3285 51.5725C54.1002 51.7996 53.9707 52.1146 53.9707 52.4357C53.9707 52.7567 54.1002 53.0717 54.3285 53.2988C54.5555 53.5271 54.8693 53.6565 55.1915 53.6565C55.5126 53.6565 55.8263 53.5271 56.0546 53.2988C56.2817 53.0717 56.4123 52.7567 56.4123 52.4357C56.4123 52.1146 56.2818 51.7996 56.0546 51.5725C55.8263 51.3455 55.5125 51.2148 55.1915 51.2148Z" fill="#15161B"/>
<path d="M38.6183 16.9229C28.1755 16.9229 19.6797 25.4186 19.6797 35.8614C19.6797 46.3043 28.1755 54.8 38.6183 54.8C49.061 54.8 57.5568 46.3043 57.5568 35.8614C57.5568 25.4186 49.061 16.9229 38.6183 16.9229ZM38.6183 52.3583C29.5218 52.3583 22.1213 44.9578 22.1213 35.8614C22.1213 26.765 29.5218 19.3645 38.6183 19.3645C47.7148 19.3645 55.1152 26.765 55.1152 35.8614C55.1152 44.9578 47.7148 52.3583 38.6183 52.3583Z" fill="#15161B"/>
<path d="M46.3389 26.4122L40.2922 32.4589C39.7865 32.2088 39.2177 32.0676 38.6165 32.0676C38.0151 32.0676 37.4464 32.2088 36.9408 32.4589L34.2346 29.7527C33.7577 29.2759 32.9849 29.2759 32.5079 29.7527C32.0312 30.2294 32.0312 31.0024 32.5079 31.4792L35.2141 34.1854C34.964 34.691 34.8229 35.2598 34.8229 35.8611C34.8229 37.9528 36.5246 39.6547 38.6165 39.6547C40.7084 39.6547 42.4101 37.9528 42.4101 35.8611C42.4101 35.2598 42.2688 34.691 42.0188 34.1854L47.888 28.3161L48.0654 28.1387C48.5422 27.662 48.5422 26.889 48.0654 26.4122C47.5887 25.9355 46.8159 25.9355 46.3389 26.4122ZM38.6165 37.2131C37.871 37.2131 37.2645 36.6066 37.2645 35.8612C37.2645 35.1158 37.871 34.5093 38.6165 34.5093C39.3619 34.5093 39.9684 35.1158 39.9684 35.8612C39.9684 36.6066 39.3619 37.2131 38.6165 37.2131Z" fill="#15161B"/>
<path d="M51.6702 34.6553H50.5392C49.865 34.6553 49.3184 35.2018 49.3184 35.8761C49.3184 36.5503 49.865 37.0969 50.5392 37.0969H51.6702C52.3444 37.0969 52.8911 36.5503 52.8911 35.8761C52.8911 35.2018 52.3444 34.6553 51.6702 34.6553Z" fill="#15161B"/>
<path d="M26.6954 34.626H25.5646C24.8904 34.626 24.3438 35.1725 24.3438 35.8468C24.3438 36.521 24.8904 37.0676 25.5646 37.0676H26.6954C27.3695 37.0676 27.9163 36.521 27.9163 35.8468C27.9163 35.1725 27.3695 34.626 26.6954 34.626Z" fill="#15161B"/>
<path d="M38.6329 25.1605C39.307 25.1605 39.8537 24.6139 39.8537 23.9397V22.8087C39.8537 22.1344 39.307 21.5879 38.6329 21.5879C37.9588 21.5879 37.4121 22.1344 37.4121 22.8087V23.9397C37.4121 24.6139 37.9588 25.1605 38.6329 25.1605Z" fill="#15161B"/>
<path d="M38.6017 46.5625C37.9275 46.5625 37.3809 47.1091 37.3809 47.7833V48.9143C37.3809 49.5885 37.9275 50.1351 38.6017 50.1351C39.2758 50.1351 39.8225 49.5885 39.8225 48.9143V47.7833C39.8225 47.1091 39.2758 46.5625 38.6017 46.5625Z" fill="#15161B"/>
<path d="M1.99229 42.1738C1.67122 42.1738 1.35625 42.3045 1.12918 42.5315C0.902111 42.7586 0.771484 43.0736 0.771484 43.3946C0.771484 43.7169 0.901989 44.0307 1.12918 44.2577C1.35637 44.4848 1.67122 44.6154 1.99229 44.6154C2.31337 44.6154 2.62833 44.4848 2.85528 44.2577C3.08235 44.0307 3.2131 43.7157 3.2131 43.3946C3.2131 43.0736 3.08247 42.7586 2.85528 42.5315C2.62833 42.3045 2.31337 42.1738 1.99229 42.1738Z" fill="#15161B"/>
</g>
<defs>
<clipPath id="clip0_15_436">
<rect width="64" height="61" fill="white" transform="translate(0 0.5)"/>
</clipPath>
</defs>
</svg>
