<svg width="47" height="62" viewBox="0 0 47 62" fill="none" xmlns="http://www.w3.org/2000/svg">
<g clip-path="url(#clip0_15_454)">
<path d="M23.8836 0.521484C21.5138 0.524152 19.1677 0.99356 16.9793 1.90291C14.7909 2.81225 12.8031 4.14373 11.1293 5.82132C9.45546 7.49891 8.12846 9.48975 7.22405 11.6802C6.31963 13.8706 5.85551 16.2177 5.85818 18.5875V27.6409H5.11643C3.9648 27.6409 2.86019 28.0977 2.04492 28.911C1.22964 29.7244 0.770269 30.8279 0.767578 31.9796V56.1828C0.770269 57.3344 1.22964 58.438 2.04492 59.2513C2.86019 60.0647 3.9648 60.5215 5.11643 60.5215H42.6507C43.8024 60.5215 44.907 60.0647 45.7222 59.2513C46.5375 58.438 46.9969 57.3344 46.9996 56.1828V31.9389C46.9969 30.7873 46.5375 29.6838 45.7222 28.8704C44.907 28.057 43.8024 27.6002 42.6507 27.6002H41.909V18.5875C41.9117 16.2177 41.4475 13.8706 40.5431 11.6802C39.6387 9.48975 38.3117 7.49891 36.6379 5.82132C34.9641 4.14373 32.9762 2.81225 30.7878 1.90291C28.5994 0.99356 26.2534 0.524152 23.8836 0.521484ZM7.89036 18.5875C7.89036 14.3459 9.57535 10.2779 12.5747 7.27861C15.574 4.2793 19.6419 2.5943 23.8836 2.5943C28.1252 2.5943 32.1932 4.2793 35.1925 7.27861C38.1918 10.2779 39.8768 14.3459 39.8768 18.5875V27.6409H36.0766V18.5875C36.0766 15.3537 34.792 12.2524 32.5054 9.96574C30.2187 7.6791 27.1174 6.39447 23.8836 6.39447C20.6498 6.39447 17.5484 7.6791 15.2618 9.96574C12.9751 12.2524 11.6905 15.3537 11.6905 18.5875V27.6409H7.89036V18.5875ZM13.7227 27.6002V18.5875C13.7227 15.8927 14.7932 13.3082 16.6988 11.4027C18.6043 9.49717 21.1887 8.42665 23.8836 8.42665C26.5784 8.42665 29.1629 9.49717 31.0684 11.4027C32.9739 13.3082 34.0445 15.8927 34.0445 18.5875V27.6409L13.7227 27.6002ZM44.9471 31.9389V56.1828C44.9444 56.7955 44.6991 57.3821 44.265 57.8144C43.8308 58.2466 43.2431 58.4893 42.6304 58.4893H5.11643C4.50377 58.4893 3.91605 58.2466 3.48188 57.8144C3.04771 57.3821 2.80244 56.7955 2.79975 56.1828V31.9389C2.80244 31.3263 3.04771 30.7396 3.48188 30.3074C3.91605 29.8751 4.50377 29.6324 5.11643 29.6324H42.6507C43.2634 29.6324 43.8511 29.8751 44.2853 30.3074C44.7195 30.7396 44.9647 31.3263 44.9674 31.9389H44.9471Z" fill="#90C943"/>
<path d="M27.8053 43.3813H20.7536V37.3661H27.8053C28.0748 37.3661 28.3332 37.259 28.5238 37.0685C28.7143 36.8779 28.8214 36.6195 28.8214 36.35C28.8214 36.0805 28.7143 35.822 28.5238 35.6315C28.3332 35.4409 28.0748 35.3339 27.8053 35.3339H24.8993L24.818 32.2856C24.818 32.0161 24.7109 31.7577 24.5204 31.5671C24.3298 31.3766 24.0714 31.2695 23.8019 31.2695C23.5324 31.2695 23.274 31.3766 23.0834 31.5671C22.8929 31.7577 22.7858 32.0161 22.7858 32.2856L22.8671 35.3339H19.8188C19.5493 35.3339 19.2909 35.4409 19.1003 35.6315C18.9098 35.822 18.8027 36.0805 18.8027 36.35V44.3974C18.8027 44.6669 18.9098 44.9253 19.1003 45.1159C19.2909 45.3064 19.5493 45.4135 19.8188 45.4135H26.9314L27.094 51.51L19.8188 51.7132C19.5493 51.7132 19.2909 51.8203 19.1003 52.0108C18.9098 52.2014 18.8027 52.4598 18.8027 52.7293C18.8027 52.9988 18.9098 53.2572 19.1003 53.4478C19.2909 53.6383 19.5493 53.7454 19.8188 53.7454L22.8061 53.6539V56.5193C22.8061 56.7888 22.9132 57.0472 23.1037 57.2378C23.2943 57.4284 23.5527 57.5354 23.8222 57.5354C24.0917 57.5354 24.3501 57.4284 24.5407 57.2378C24.7312 57.0472 24.8383 56.7888 24.8383 56.5193V53.5625L28.1101 53.4711C28.3796 53.4711 28.638 53.364 28.8286 53.1734C29.0191 52.9829 29.1262 52.7245 29.1262 52.455L28.9026 44.4075C28.9045 44.2661 28.8768 44.1259 28.8214 43.9958C28.766 43.8657 28.684 43.7486 28.5807 43.652C28.4774 43.5554 28.3551 43.4814 28.2215 43.4348C28.088 43.3882 27.9462 43.37 27.8053 43.3813Z" fill="#15161B"/>
<path d="M14.6372 36.6943C14.7539 36.6276 14.8564 36.5385 14.9387 36.4322C15.0211 36.3259 15.0817 36.2044 15.117 36.0747C15.1524 35.9449 15.1619 35.8095 15.1449 35.6761C15.128 35.5427 15.0849 35.414 15.0182 35.2972C14.9515 35.1804 14.8624 35.078 14.7561 34.9956C14.6498 34.9133 14.5283 34.8527 14.3986 34.8173C14.2688 34.782 14.1334 34.7725 14 34.7894C13.8666 34.8064 13.7378 34.8495 13.6211 34.9162C13.0927 35.221 8.38823 37.9644 7.7481 43.5631C7.52135 45.8111 7.95522 48.0764 8.99658 50.0815C10.0379 52.0866 11.6415 53.7444 13.6109 54.8518C13.7658 54.9396 13.941 54.9851 14.119 54.9839C14.297 54.9857 14.4724 54.9406 14.6276 54.8532C14.7827 54.7658 14.9122 54.6392 15.003 54.486C15.1287 54.2592 15.163 53.9929 15.0987 53.7417C15.0345 53.4904 14.8767 53.2733 14.6575 53.1346C13.029 52.2273 11.7009 50.8641 10.8362 49.2125C9.97164 47.5609 9.60815 45.6927 9.79043 43.8374C10.0091 42.359 10.5585 40.9489 11.3977 39.7121C12.2368 38.4754 13.3441 37.4438 14.6372 36.6943Z" fill="#15161B"/>
<path d="M33.7996 34.9162C33.5638 34.7814 33.2842 34.7459 33.0221 34.8173C32.7601 34.8888 32.5372 35.0614 32.4025 35.2972C32.2678 35.533 32.2322 35.8127 32.3037 36.0747C32.3751 36.3367 32.5477 36.5596 32.7835 36.6943C34.0734 37.4413 35.1793 38.4681 36.0198 39.699C36.8604 40.9299 37.4142 42.3337 37.6404 43.8069C37.8268 45.6646 37.4676 47.5363 36.6068 49.1929C35.746 50.8496 34.4209 52.2194 32.7937 53.1346C32.6781 53.2019 32.5769 53.2912 32.496 53.3976C32.415 53.5041 32.3558 53.6254 32.3218 53.7547C32.2879 53.884 32.2797 54.0188 32.2979 54.1513C32.3161 54.2837 32.3603 54.4113 32.4279 54.5267C32.5178 54.6783 32.6457 54.804 32.7989 54.8913C32.9521 54.9786 33.1254 55.0245 33.3017 55.0246C33.4797 55.0258 33.6549 54.9802 33.8098 54.8925C35.7792 53.785 37.3828 52.1272 38.4241 50.1221C39.4655 48.117 39.8994 45.8517 39.6726 43.6037C39.0426 38.0152 34.3381 35.221 33.7996 34.9162Z" fill="#15161B"/>
</g>
<defs>
<clipPath id="clip0_15_454">
<rect width="47" height="61" fill="white" transform="translate(0 0.5)"/>
</clipPath>
</defs>
</svg>
