<svg width="49" height="52" viewBox="0 0 49 52" fill="none" xmlns="http://www.w3.org/2000/svg">
<g clip-path="url(#clip0_15_428)">
<path d="M42.5143 4.94155H38.9429C38.9429 2.9725 37.3405 1.37012 35.3715 1.37012C33.4024 1.37012 31.8 2.9725 31.8 4.94155H17.5143C17.5143 2.9725 15.9119 1.37012 13.9429 1.37012C11.9738 1.37012 10.3715 2.9725 10.3715 4.94155H6.80004C3.51789 4.94155 0.847656 7.61178 0.847656 10.8939V45.4177C0.847656 48.6999 3.51789 51.3701 6.80004 51.3701H42.5143C45.7965 51.3701 48.4667 48.6999 48.4667 45.4177V10.8939C48.4667 7.61178 45.7965 4.94155 42.5143 4.94155ZM34.181 4.94155C34.181 4.28559 34.7143 3.75107 35.3715 3.75107C36.0286 3.75107 36.5619 4.28559 36.5619 4.94155V7.3225C36.5619 7.97845 36.0286 8.51297 35.3715 8.51297C34.7143 8.51297 34.181 7.97845 34.181 7.3225V4.94155ZM12.7524 4.94155C12.7524 4.28559 13.2858 3.75107 13.9429 3.75107C14.6 3.75107 15.1334 4.28559 15.1334 4.94155V7.3225C15.1334 7.97845 14.6 8.51297 13.9429 8.51297C13.2858 8.51297 12.7524 7.97845 12.7524 7.3225V4.94155ZM3.22861 10.8939C3.22861 8.92488 4.83099 7.3225 6.80004 7.3225H10.3715C10.3715 9.29155 11.9738 10.8939 13.9429 10.8939C15.9119 10.8939 17.5143 9.29155 17.5143 7.3225H31.8C31.8 9.29155 33.4024 10.8939 35.3715 10.8939C37.3405 10.8939 38.9429 9.29155 38.9429 7.3225H42.5143C44.4834 7.3225 46.0858 8.92488 46.0858 10.8939V15.6558H3.22861V10.8939ZM46.0858 45.4177C46.0858 47.3868 44.4834 48.9892 42.5143 48.9892H6.80004C4.83099 48.9892 3.22861 47.3868 3.22861 45.4177V18.0368H46.0858V45.4177Z" fill="#90C943"/>
<path d="M10.3731 31.1312H13.9446C15.2577 31.1312 16.3255 30.0633 16.3255 28.7502V25.1788C16.3255 23.8657 15.2577 22.7979 13.9446 22.7979H10.3731C9.06004 22.7979 7.99219 23.8657 7.99219 25.1788V28.7502C7.99219 30.0633 9.06004 31.1312 10.3731 31.1312ZM10.3731 25.1788H13.9446L13.9469 28.7502H10.3731V25.1788Z" fill="#15161B"/>
<path d="M22.8731 31.1312H26.4446C27.7577 31.1312 28.8255 30.0633 28.8255 28.7502V25.1788C28.8255 23.8657 27.7577 22.7979 26.4446 22.7979H22.8731C21.56 22.7979 20.4922 23.8657 20.4922 25.1788V28.7502C20.4922 30.0633 21.56 31.1312 22.8731 31.1312ZM22.8731 25.1788H26.4446L26.447 28.7502H22.8731V25.1788Z" fill="#15161B"/>
<path d="M35.3731 31.1312H38.9446C40.2577 31.1312 41.3255 30.0633 41.3255 28.7502V25.1788C41.3255 23.8657 40.2577 22.7979 38.9446 22.7979H35.3731C34.06 22.7979 32.9922 23.8657 32.9922 25.1788V28.7502C32.9922 30.0633 34.06 31.1312 35.3731 31.1312ZM35.3731 25.1788H38.9446L38.9469 28.7502H35.3731V25.1788Z" fill="#15161B"/>
<path d="M10.3731 44.2269H13.9446C15.2577 44.2269 16.3255 43.159 16.3255 41.8459V38.2745C16.3255 36.9614 15.2577 35.8936 13.9446 35.8936H10.3731C9.06004 35.8936 7.99219 36.9614 7.99219 38.2745V41.8459C7.99219 43.159 9.06004 44.2269 10.3731 44.2269ZM10.3731 38.2745H13.9446L13.9469 41.8459H10.3731V38.2745Z" fill="#15161B"/>
<path d="M22.8731 44.2269H26.4446C27.7577 44.2269 28.8255 43.159 28.8255 41.8459V38.2745C28.8255 36.9614 27.7577 35.8936 26.4446 35.8936H22.8731C21.56 35.8936 20.4922 36.9614 20.4922 38.2745V41.8459C20.4922 43.159 21.56 44.2269 22.8731 44.2269ZM22.8731 38.2745H26.4446L26.447 41.8459H22.8731V38.2745Z" fill="#15161B"/>
<path d="M35.3731 44.2269H38.9446C40.2577 44.2269 41.3255 43.159 41.3255 41.8459V38.2745C41.3255 36.9614 40.2577 35.8936 38.9446 35.8936H35.3731C34.06 35.8936 32.9922 36.9614 32.9922 38.2745V41.8459C32.9922 43.159 34.06 44.2269 35.3731 44.2269ZM35.3731 38.2745H38.9446L38.9469 41.8459H35.3731V38.2745Z" fill="#15161B"/>
</g>
<defs>
<clipPath id="clip0_15_428">
<rect width="49" height="51" fill="white" transform="translate(0 0.5)"/>
</clipPath>
</defs>
</svg>
