<svg width="63" height="63" viewBox="0 0 63 63" fill="none" xmlns="http://www.w3.org/2000/svg">
<path fill-rule="evenodd" clip-rule="evenodd" d="M15.3462 4.84615C12.5645 4.85637 9.89974 5.96589 7.93282 7.93282C5.96589 9.89974 4.85637 12.5645 4.84615 15.3462V47.6538C4.85637 50.4355 5.96589 53.1003 7.93282 55.0672C9.89974 57.0341 12.5645 58.1436 15.3462 58.1538C15.9888 58.1538 16.6051 58.4091 17.0595 58.8635C17.5139 59.318 17.7692 59.9343 17.7692 60.5769C17.7692 61.2196 17.5139 61.8359 17.0595 62.2903C16.6051 62.7447 15.9888 63 15.3462 63C11.2792 62.9898 7.38184 61.3697 4.50609 58.4939C1.63034 55.6182 0.0102356 51.7208 0 47.6538V15.3462C0.0102356 11.2792 1.63034 7.38184 4.50609 4.50609C7.38184 1.63034 11.2792 0.0102356 15.3462 0H47.6538C51.7208 0.0102356 55.6182 1.63034 58.4939 4.50609C61.3697 7.38184 62.9898 11.2792 63 15.3462V31.5C63 32.1426 62.7447 32.759 62.2903 33.2134C61.8359 33.6678 61.2196 33.9231 60.5769 33.9231C59.9343 33.9231 59.318 33.6678 58.8635 33.2134C58.4091 32.759 58.1538 32.1426 58.1538 31.5V15.3462C58.1436 12.5645 57.0341 9.89974 55.0672 7.93282C53.1003 5.96589 50.4355 4.85637 47.6538 4.84615H43.6154V16.9615C43.6154 20.8837 40.2683 24.2308 36.3462 24.2308H26.6538C22.7317 24.2308 19.3846 20.8837 19.3846 16.9615V4.84615H15.3462ZM24.2308 4.84615V16.9615C24.2308 18.2086 25.4068 19.3846 26.6538 19.3846H36.3462C37.5932 19.3846 38.7692 18.2086 38.7692 16.9615V4.84615H24.2308ZM48.0997 41.4443C48.5467 41.9054 48.7923 42.5252 48.7826 43.1673C48.7729 43.8095 48.5087 44.4215 48.048 44.8689L37.6902 54.9166C37.4751 55.2391 37.193 55.5113 36.8631 55.7146C36.4023 55.9933 35.8733 56.1386 35.3349 56.1346C34.5951 56.1346 33.7002 55.8665 33.0185 55.1815L32.8957 55.062L28.9154 49.7538C28.5298 49.2397 28.3642 48.5935 28.4551 47.9573C28.546 47.3211 28.8859 46.7471 29.4 46.3615C29.9141 45.976 30.5603 45.8104 31.1965 45.9013C31.8327 45.9922 32.4067 46.332 32.7923 46.8462L35.4254 50.358L44.6751 41.3926C45.1362 40.9456 45.7559 40.7 46.3981 40.7097C47.0402 40.7194 47.6523 40.9836 48.0997 41.4443Z" fill="#15161B"/>
<path fill-rule="evenodd" clip-rule="evenodd" d="M15.3462 4.84615C12.5645 4.85637 9.89974 5.96589 7.93282 7.93282C5.96589 9.89974 4.85637 12.5645 4.84615 15.3462V47.6538C4.85637 50.4355 5.96589 53.1003 7.93282 55.0672C9.89974 57.0341 12.5645 58.1436 15.3462 58.1538C15.9888 58.1538 16.6051 58.4091 17.0595 58.8635C17.5139 59.318 17.7692 59.9343 17.7692 60.5769C17.7692 61.2196 17.5139 61.8359 17.0595 62.2903C16.6051 62.7447 15.9888 63 15.3462 63C11.2792 62.9898 7.38184 61.3697 4.50609 58.4939C1.63034 55.6182 0.0102356 51.7208 0 47.6538V15.3462C0.0102356 11.2792 1.63034 7.38184 4.50609 4.50609C7.38184 1.63034 11.2792 0.0102356 15.3462 0H47.6538C51.7208 0.0102356 55.6182 1.63034 58.4939 4.50609C61.3697 7.38184 62.9898 11.2792 63 15.3462V31.5C63 32.1426 62.7447 32.759 62.2903 33.2134C61.8359 33.6678 61.2196 33.9231 60.5769 33.9231C59.9343 33.9231 59.318 33.6678 58.8635 33.2134C58.4091 32.759 58.1538 32.1426 58.1538 31.5V15.3462C58.1436 12.5645 57.0341 9.89974 55.0672 7.93282C53.1003 5.96589 50.4355 4.85637 47.6538 4.84615H43.6154V16.9615C43.6154 20.8837 40.2683 24.2308 36.3462 24.2308H26.6538C22.7317 24.2308 19.3846 20.8837 19.3846 16.9615V4.84615H15.3462ZM24.2308 4.84615V16.9615C24.2308 18.2086 25.4068 19.3846 26.6538 19.3846H36.3462C37.5932 19.3846 38.7692 18.2086 38.7692 16.9615V4.84615H24.2308Z" fill="#90C943"/>
</svg>
