<svg width="45" height="52" viewBox="0 0 45 52" fill="none" xmlns="http://www.w3.org/2000/svg">
<g clip-path="url(#clip0_15_451)">
<path d="M31.1695 34.4292C36.4901 26.0803 35.8213 27.1219 35.9746 26.9042C37.9117 24.172 38.9355 20.9562 38.9355 17.6045C38.9355 8.71582 31.7226 1.39355 22.8223 1.39355C13.951 1.39355 6.70898 8.70137 6.70898 17.6045C6.70898 20.9541 7.7543 24.254 9.75488 27.023L14.4748 34.4293C9.42842 35.2048 0.849609 37.5158 0.849609 42.6045C0.849609 44.4595 2.06035 47.103 7.82832 49.163C11.8559 50.6014 17.1808 51.3936 22.8223 51.3936C33.3716 51.3936 44.7949 48.4178 44.7949 42.6045C44.7949 37.5149 36.2262 35.2063 31.1695 34.4292ZM12.2021 25.4116C12.1859 25.3864 12.1691 25.3618 12.1516 25.3376C10.4868 23.0474 9.63867 20.3331 9.63867 17.6045C9.63867 10.2785 15.5377 4.32324 22.8223 4.32324C30.0917 4.32324 36.0059 10.2811 36.0059 17.6045C36.0059 20.3375 35.1737 22.9597 33.599 25.1896C33.4579 25.3757 34.1941 24.2319 22.8223 42.0761L12.2021 25.4116ZM22.8223 48.4639C11.2994 48.4639 3.7793 45.0769 3.7793 42.6045C3.7793 40.9428 7.64336 38.2104 16.2059 37.1454L21.5869 45.5891C21.8559 46.0111 22.3217 46.2666 22.8222 46.2666C23.3227 46.2666 23.7886 46.011 24.0574 45.5891L29.4384 37.1454C38.0011 38.2104 41.8652 40.9428 41.8652 42.6045C41.8652 45.0559 34.4128 48.4639 22.8223 48.4639Z" fill="#90C943"/>
<path d="M22.8223 10.2803C18.7837 10.2803 15.498 13.5659 15.498 17.6045C15.498 21.6431 18.7837 24.9287 22.8223 24.9287C26.8608 24.9287 30.1465 21.6431 30.1465 17.6045C30.1465 13.5659 26.8608 10.2803 22.8223 10.2803ZM22.8223 21.999C20.3991 21.999 18.4277 20.0276 18.4277 17.6045C18.4277 15.1813 20.3991 13.21 22.8223 13.21C25.2454 13.21 27.2168 15.1813 27.2168 17.6045C27.2168 20.0276 25.2454 21.999 22.8223 21.999Z" fill="#15161B"/>
</g>
<defs>
<clipPath id="clip0_15_451">
<rect width="45" height="51" fill="white" transform="translate(0 0.5)"/>
</clipPath>
</defs>
</svg>
