<svg width="53" height="42" viewBox="0 0 53 42" fill="none" xmlns="http://www.w3.org/2000/svg">
<g clip-path="url(#clip0_15_426)">
<path d="M4.70588 38.1622C1.76471 34.9269 0 31.3975 0 25.5151C0 15.221 7.35294 6.10334 17.6471 1.39746L20.2941 5.22099C10.5882 10.5151 8.52941 17.2798 7.94118 21.6916C9.41177 20.8092 11.4706 20.5151 13.5294 20.8092C18.8235 21.3975 22.9412 25.5151 22.9412 31.1033C22.9412 33.7504 21.7647 36.3975 20 38.4563C17.9412 40.5151 15.5882 41.3975 12.6471 41.3975C9.41177 41.3975 6.47059 39.9269 4.70588 38.1622ZM34.1177 38.1622C31.1765 34.9269 29.4118 31.3975 29.4118 25.5151C29.4118 15.221 36.7647 6.10334 47.0588 1.39746L49.7059 5.22099C40 10.5151 37.9412 17.2798 37.3529 21.6916C38.8235 20.8092 40.8824 20.5151 42.9412 20.8092C48.2353 21.3975 52.3529 25.5151 52.3529 31.1033C52.3529 33.7504 51.1765 36.3975 49.4118 38.4563C47.6471 40.5151 45 41.3975 42.0588 41.3975C38.8235 41.3975 35.8824 39.9269 34.1177 38.1622Z" fill="#90C943"/>
</g>
<defs>
<clipPath id="clip0_15_426">
<rect width="53" height="41" fill="white" transform="translate(0 0.5)"/>
</clipPath>
</defs>
</svg>
