<svg width="52" height="62" viewBox="0 0 52 62" fill="none" xmlns="http://www.w3.org/2000/svg">
<g clip-path="url(#clip0_15_459)">
<path d="M35.5955 35.061C35.5955 38.4737 38.3719 41.25 41.7846 41.25C45.1973 41.25 47.9736 38.4737 47.9736 35.061C47.9736 31.6483 45.1973 28.872 41.7846 28.872C38.3719 28.872 35.5955 31.6483 35.5955 35.061ZM46.0997 35.061C46.0997 37.44 44.1636 39.3761 41.7846 39.3761C39.4055 39.3761 37.4695 37.44 37.4695 35.061C37.4695 32.6819 39.4055 30.7459 41.7846 30.7459C44.1636 30.7459 46.0997 32.6808 46.0997 35.061ZM10.8593 41.25C14.272 41.25 17.0484 38.4737 17.0484 35.061C17.0484 31.6483 14.272 28.872 10.8593 28.872C7.44899 28.872 4.67383 31.6483 4.67383 35.061C4.67383 38.4737 7.44899 41.25 10.8593 41.25ZM10.8593 30.7447C13.2384 30.7447 15.1744 32.6808 15.1744 35.0598C15.1744 37.4389 13.2384 39.3749 10.8593 39.3749C8.48147 39.3749 6.54776 37.4389 6.54776 35.0598C6.54776 32.6808 8.48147 30.7447 10.8593 30.7447ZM26.3231 31.4959C22.9104 31.4959 20.1341 34.2723 20.1341 37.685C20.1341 41.0953 22.9104 43.8705 26.3231 43.8705C29.7358 43.8705 32.5122 41.0953 32.5122 37.685C32.5122 34.2723 29.7358 31.4959 26.3231 31.4959ZM26.3231 41.9965C23.9441 41.9965 22.008 40.0617 22.008 37.685C22.008 35.3059 23.9441 33.3699 26.3231 33.3699C28.7022 33.3699 30.6382 35.3059 30.6382 37.685C30.6394 40.0628 28.7033 41.9965 26.3231 41.9965ZM15.8518 18.2588L20.488 21.6141C20.5126 21.6329 20.5138 21.6411 20.5068 21.6633L18.7278 27.1035C18.4629 27.8969 18.7407 28.7606 19.4145 29.2481C19.752 29.4954 20.147 29.6197 20.5431 29.6197C20.9381 29.6197 21.333 29.4966 21.6693 29.2505L26.302 25.8741C26.3208 25.8601 26.3243 25.8601 26.3454 25.8753L30.9757 29.2528C31.652 29.7427 32.5579 29.7415 33.2235 29.2528C33.8986 28.7641 34.1787 27.9039 33.9197 27.1094L32.1407 21.668C32.1325 21.6422 32.1336 21.6329 32.1535 21.6188L36.7944 18.26C37.4671 17.7725 37.7484 16.9135 37.4917 16.1189C37.2351 15.329 36.5026 14.7969 35.6682 14.7969L29.9433 14.8098C29.9187 14.8098 29.9081 14.8028 29.9011 14.7817L28.1432 9.32981C27.8877 8.5364 27.1552 8.00317 26.322 8.00317C25.4887 8.00317 24.7562 8.5364 24.5008 9.32981L22.7405 14.7793C22.7311 14.8086 22.7206 14.8098 22.703 14.8098L16.9699 14.7969C16.1378 14.7969 15.4065 15.3278 15.1487 16.12C14.8943 16.9146 15.1768 17.776 15.8518 18.2588ZM16.9324 16.6966C16.9382 16.6767 16.9452 16.6697 16.9699 16.6697L22.703 16.6826C23.5351 16.6826 24.2664 16.1505 24.5242 15.3559L26.2845 9.90406C26.2927 9.87945 26.2973 9.87593 26.3231 9.87593C26.3489 9.87593 26.3536 9.87945 26.3618 9.90406L28.1197 15.3583C28.3775 16.1505 29.1112 16.6826 29.9468 16.6826L35.6717 16.6697C35.6987 16.6697 35.7034 16.6755 35.7104 16.6943C35.7198 16.7248 35.7139 16.7283 35.6975 16.7412L31.0519 20.1035C30.3722 20.6016 30.1003 21.4418 30.3605 22.247L32.1407 27.6906C32.1489 27.7152 32.1442 27.7223 32.1219 27.7387C32.1078 27.7492 32.102 27.7539 32.0785 27.7375L27.4529 24.3635C27.1154 24.1162 26.7192 23.992 26.3231 23.992C25.9282 23.992 25.5332 24.115 25.1969 24.3623L20.5654 27.7387C20.5443 27.7539 20.5372 27.7504 20.5185 27.7363C20.4997 27.7223 20.4997 27.7176 20.5079 27.693L22.2893 22.2446C22.5483 21.443 22.2752 20.6039 21.592 20.1023L16.9464 16.7388C16.9288 16.7259 16.9242 16.7224 16.9324 16.6966ZM25.3867 5.17175V1.45787C25.3867 0.939868 25.8063 0.521484 26.3231 0.521484C26.84 0.521484 27.2595 0.94104 27.2595 1.45787V5.17175C27.2595 5.68975 26.84 6.10814 26.3231 6.10814C25.8063 6.10814 25.3867 5.68975 25.3867 5.17175ZM32.3329 6.53121L34.1904 3.3154C34.4494 2.86771 35.0225 2.71419 35.4701 2.97202C35.9178 3.23102 36.0714 3.8041 35.8124 4.25178L33.9548 7.46759C33.7814 7.76761 33.4661 7.93637 33.1427 7.93637C32.9833 7.93637 32.8227 7.89535 32.6751 7.81097C32.2274 7.55197 32.0739 6.97889 32.3329 6.53121ZM37.3253 12.4612C37.0663 12.0136 37.2199 11.4405 37.6675 11.1815L40.8834 9.32395C41.331 9.06495 41.9041 9.21847 42.1631 9.66616C42.4221 10.1138 42.2686 10.6869 41.8209 10.9459L38.6051 12.8034C38.4574 12.889 38.2969 12.9288 38.1375 12.9288C37.814 12.9288 37.4988 12.7613 37.3253 12.4612ZM16.8351 4.25178C16.5761 3.8041 16.7296 3.23102 17.1773 2.97202C17.625 2.71302 18.198 2.86654 18.457 3.3154L20.3146 6.53121C20.5736 6.97889 20.4201 7.55197 19.9724 7.81097C19.8247 7.89652 19.6642 7.93637 19.5048 7.93637C19.1813 7.93637 18.8661 7.76878 18.6926 7.46759L16.8351 4.25178ZM10.4831 9.66616C10.7421 9.21847 11.3152 9.06495 11.7629 9.32395L14.9787 11.1815C15.4264 11.4405 15.5799 12.0136 15.3209 12.4612C15.1475 12.7613 14.8322 12.93 14.5088 12.93C14.3494 12.93 14.1888 12.889 14.0412 12.8046L10.8254 10.9471C10.3777 10.6881 10.2242 10.115 10.4831 9.66616Z" fill="#15161B"/>
<path d="M43.1931 41.9873H40.3793C37.2666 41.9873 34.4246 43.6257 32.839 46.2485C31.3975 45.2184 29.6349 44.6089 27.7317 44.6089H24.9155C23.0111 44.6089 21.2485 45.2184 19.8058 46.2497C18.2213 43.6269 15.3794 41.9873 12.2679 41.9873H9.45403C4.59632 41.9873 0.644531 45.9379 0.644531 50.7945V55.6076C0.644531 56.8722 1.67233 57.8999 2.93685 57.8999H16.1083V58.2293C16.1083 59.4938 17.1361 60.5216 18.4006 60.5216H34.2465C35.511 60.5216 36.5388 59.4938 36.5388 58.2293V57.8999H49.7079C50.9725 57.8999 52.0002 56.8722 52.0002 55.6076V50.7945C51.9991 45.9379 48.0485 41.9873 43.1931 41.9873ZM43.1931 43.8612C43.472 43.8612 43.7451 43.88 44.0158 43.9116L41.7868 47.7697L39.5577 43.9105C39.8284 43.8776 40.1027 43.8612 40.3804 43.8612H43.1931ZM27.7317 46.4817C28.0094 46.4817 28.2825 46.5005 28.5508 46.5321L26.3218 50.3937L24.0928 46.5333C24.3623 46.5016 24.6365 46.4829 24.9155 46.4829H27.7317V46.4817ZM12.2679 43.8612C12.5456 43.8612 12.8198 43.8788 13.0906 43.9105L10.8615 47.7685L8.63249 43.9105C8.90204 43.8788 9.17628 43.8601 9.4552 43.8601H12.2679V43.8612ZM2.93685 56.026C2.70949 56.026 2.51847 55.835 2.51847 55.6076V50.7945C2.51847 47.9279 4.26818 45.4621 6.75504 44.4085L9.58294 49.3026C9.85014 49.7667 10.3283 50.0432 10.8592 50.0432C11.3924 50.0432 11.8717 49.7667 12.1389 49.3026L14.9657 44.4097C16.4025 45.0191 17.6131 46.1079 18.376 47.5247C16.9674 49.0869 16.1083 51.1542 16.1083 53.4184V56.026H2.93685ZM34.6649 58.2281C34.6649 58.4554 34.4727 58.6465 34.2465 58.6465H18.4006C18.1698 58.6465 17.9823 58.459 17.9823 58.2281V53.4173C17.9823 51.4648 18.7944 49.6987 20.0964 48.4377C20.1351 48.406 20.1714 48.3721 20.2043 48.3345C20.7902 47.7908 21.4688 47.3454 22.2153 47.029L25.0432 51.9254C25.3092 52.3871 25.7886 52.6637 26.323 52.6637C26.8621 52.6637 27.3391 52.386 27.6016 51.9219L30.4283 47.0278C31.1678 47.3407 31.8405 47.7802 32.4229 48.3158C32.4651 48.365 32.512 48.4107 32.5647 48.4517C33.8586 49.7128 34.6649 51.473 34.6649 53.4184V58.2281ZM50.1263 55.6076C50.1263 55.835 49.9341 56.026 49.7079 56.026H36.5388V53.4184C36.5388 51.1531 35.6786 49.0846 34.2687 47.5212C35.0317 46.1055 36.2435 45.0179 37.6803 44.4085L40.5047 49.2979C40.7683 49.7643 41.2453 50.0432 41.7832 50.0432C42.3165 50.0432 42.7958 49.7667 43.063 49.3026L45.8909 44.4085C48.3766 45.4633 50.1251 47.9291 50.1251 50.7945V55.6076H50.1263Z" fill="#90C943"/>
</g>
<defs>
<clipPath id="clip0_15_459">
<rect width="52" height="61" fill="white" transform="translate(0 0.5)"/>
</clipPath>
</defs>
</svg>
