<svg width="42" height="52" viewBox="0 0 42 52" fill="none" xmlns="http://www.w3.org/2000/svg">
<g clip-path="url(#clip0_15_446)">
<path d="M20.973 21.5896C18.9735 21.5896 17.0189 20.9967 15.3564 19.8858C13.6938 18.775 12.398 17.196 11.6328 15.3487C10.8677 13.5014 10.6675 11.4687 11.0575 9.50757C11.4476 7.54647 12.4105 5.74508 13.8244 4.3312C15.2382 2.91733 17.0396 1.95447 19.0007 1.56438C20.9618 1.17429 22.9946 1.3745 24.8419 2.13968C26.6892 2.90487 28.2681 4.20066 29.379 5.8632C30.4899 7.52574 31.0828 9.48036 31.0828 11.4799C31.0793 14.1601 30.013 16.7295 28.1178 18.6247C26.2226 20.5199 23.6532 21.5861 20.973 21.5896ZM20.973 4.9252C19.6767 4.9252 18.4094 5.30963 17.3315 6.02987C16.2535 6.7501 15.4134 7.7738 14.9173 8.97152C14.4212 10.1692 14.2914 11.4872 14.5443 12.7586C14.7972 14.0301 15.4215 15.1981 16.3382 16.1147C17.2549 17.0314 18.4228 17.6557 19.6943 17.9086C20.9658 18.1615 22.2837 18.0317 23.4814 17.5356C24.6791 17.0395 25.7028 16.1994 26.4231 15.1215C27.1433 14.0436 27.5277 12.7763 27.5277 11.4799C27.5254 9.7422 26.834 8.07635 25.6053 6.84762C24.3766 5.61889 22.7107 4.92755 20.973 4.9252Z" fill="#15161B"/>
<path d="M32.51 51.37C32.0385 51.37 31.5864 51.1827 31.2531 50.8493C30.9197 50.516 30.7324 50.0639 30.7324 49.5924V41.799C30.7324 41.3276 30.9197 40.8755 31.2531 40.5421C31.5864 40.2088 32.0385 40.0215 32.51 40.0215C32.9814 40.0215 33.4335 40.2088 33.7669 40.5421C34.1002 40.8755 34.2875 41.3276 34.2875 41.799V49.5924C34.2875 50.0639 34.1002 50.516 33.7669 50.8493C33.4335 51.1827 32.9814 51.37 32.51 51.37Z" fill="#15161B"/>
<path d="M9.4416 51.37C8.97017 51.37 8.51804 51.1827 8.18469 50.8493C7.85134 50.516 7.66406 50.0639 7.66406 49.5924V41.799C7.66406 41.3276 7.85134 40.8755 8.18469 40.5421C8.51804 40.2088 8.97017 40.0215 9.4416 40.0215C9.91304 40.0215 10.3652 40.2088 10.6985 40.5421C11.0319 40.8755 11.2191 41.3276 11.2191 41.799V49.5924C11.2191 50.0639 11.0319 50.516 10.6985 50.8493C10.3652 51.1827 9.91304 51.37 9.4416 51.37Z" fill="#15161B"/>
<path d="M39.3258 51.3704H2.6252C2.15376 51.3704 1.70164 51.1831 1.36828 50.8498C1.03493 50.5164 0.847656 50.0643 0.847656 49.5929V39.3376C0.847656 31.3542 7.34345 24.8584 15.3268 24.8584H26.622C34.6054 24.8584 41.1012 31.3542 41.1012 39.3376V49.5929C41.1012 50.0639 40.9142 50.5157 40.5813 50.849C40.2485 51.1823 39.7969 51.3698 39.3258 51.3704ZM4.40274 47.8153H37.5483V39.3376C37.5451 36.4409 36.3928 33.6639 34.3444 31.6159C32.2959 29.5678 29.5186 28.4161 26.622 28.4135H15.3235C12.4278 28.4176 9.65197 29.57 7.60472 31.6178C5.55748 33.6657 4.40597 36.4419 4.40274 39.3376V47.8153Z" fill="#90C943"/>
</g>
<defs>
<clipPath id="clip0_15_446">
<rect width="42" height="51" fill="white" transform="translate(0 0.5)"/>
</clipPath>
</defs>
</svg>
